<?xml version="1.0" encoding="utf-8"?>
<!-- Generator: Adobe Illustrator 16.0.0, SVG Export Plug-In . SVG Version: 6.00 Build 0)  -->
<!DOCTYPE svg PUBLIC "-//W3C//DTD SVG 1.1//EN" "http://www.w3.org/Graphics/SVG/1.1/DTD/svg11.dtd">
<svg version="1.1" id="Capa_1" xmlns="http://www.w3.org/2000/svg" xmlns:xlink="http://www.w3.org/1999/xlink" x="0px" y="0px"
	 width="470.271px" height="330.022px" viewBox="62.504 171.745 470.271 330.022"
	 enable-background="new 62.504 171.745 470.271 330.022" xml:space="preserve">
<g>
	<g transform="matrix( 1, 0, 0, 1, 0,0) ">
		<g>
			<g>
				<path d="M524.74,358.309c5.357-6.062,8.035-13.246,8.035-21.553s-2.678-15.378-8.035-21.216L405.683,180.838
					c-5.158-6.062-11.408-9.093-18.75-9.093s-13.691,3.031-19.051,9.093c-5.158,5.837-7.738,12.909-7.738,21.216
					s2.58,15.49,7.738,21.553l73.518,82.842H89.292c-7.342,0-13.691,3.03-19.049,9.092c-5.159,5.838-7.739,12.909-7.739,21.216
					s2.58,15.491,7.739,21.553c5.357,5.837,11.707,8.756,19.049,8.756H441.4l-73.518,83.179c-5.158,5.836-7.738,12.908-7.738,21.215
					s2.58,15.49,7.738,21.553c5.359,5.836,11.709,8.756,19.051,8.756s13.592-2.92,18.75-8.756L524.74,358.309z"/>
			</g>
		</g>
	</g>
</g>
</svg>
