<?xml version="1.0" encoding="utf-8"?>
<!-- Generator: Adobe Illustrator 16.0.0, SVG Export Plug-In . SVG Version: 6.00 Build 0)  -->
<!DOCTYPE svg PUBLIC "-//W3C//DTD SVG 1.1//EN" "http://www.w3.org/Graphics/SVG/1.1/DTD/svg11.dtd">
<svg version="1.1" id="Capa_1" xmlns="http://www.w3.org/2000/svg" xmlns:xlink="http://www.w3.org/1999/xlink" x="0px" y="0px"
	 width="449.674px" height="656.49px" viewBox="0 0 449.674 656.49" enable-background="new 0 0 449.674 656.49"
	 xml:space="preserve">
<path fill="#030104" d="M376.465,150.93V47.183C376.465,21.168,357.259,0,333.65,0h-208.05c-23.603,0-42.808,21.168-42.808,47.183
	v40.362h-3.742v25.945h3.742v20.927h-3.742v47.458h3.742v11.793h-3.742v47.459h3.742v368.18c0,26.021,19.205,47.183,42.808,47.183
	h208.05c23.608,0,42.814-21.162,42.814-47.183V226.101h3.209V150.93H376.465z M363.627,150.93v75.171v383.207
	c0,18.21-13.448,33.032-29.977,33.032h-208.05c-16.522,0-29.97-14.822-29.97-33.032V47.183c0-18.218,13.447-33.033,29.97-33.033
	h30.746c0,3.701,0,7.308,0,9.29c0,10.301,8.185,18.72,18.198,18.72H284.18c10.021-0.007,15.899-8.433,15.899-18.728
	c0-2.052,0-5.532,0-9.282h33.571c16.528,0,29.977,14.815,29.977,33.033V150.93z"/>
</svg>
