<?xml version="1.0" encoding="utf-8"?>
<!-- Generator: Adobe Illustrator 16.0.0, SVG Export Plug-In . SVG Version: 6.00 Build 0)  -->
<!DOCTYPE svg PUBLIC "-//W3C//DTD SVG 1.1//EN" "http://www.w3.org/Graphics/SVG/1.1/DTD/svg11.dtd">
<svg version="1.1" id="Capa_1" xmlns="http://www.w3.org/2000/svg" xmlns:xlink="http://www.w3.org/1999/xlink" x="0px" y="0px"
	 width="449.674px" height="656.49px" viewBox="0 0 449.674 656.49" enable-background="new 0 0 449.674 656.49"
	 xml:space="preserve">
<path fill="#030104" d="M408.635,6.15h-226.4c-22.656,0-41.033,17.294-41.033,38.635V617.86c0,21.335,18.373,38.63,41.033,38.63
	h226.406c22.66,0,41.033-17.295,41.033-38.63V44.785C449.67,23.444,431.297,6.15,408.635,6.15z M296.102,642.686
	c-13.822,0-25.027-11.385-25.027-25.426c0-14.035,11.205-25.426,25.027-25.426c13.824,0,25.029,11.391,25.029,25.426
	C321.131,631.301,309.926,642.686,296.102,642.686z M436.223,570.17c0,3.863-3.297,6.994-7.361,6.994H162.109
	c-4.064,0-7.356-3.127-7.356-6.994V78.733c0-3.862,3.292-6.994,7.356-6.994h266.752c4.064,0,7.361,3.131,7.361,6.989V570.17z"/>
<path fill="#030104" d="M141.202,635.096c-4.046-3.93-6.514-9.151-6.514-14.883c0-5.729,2.467-10.95,6.514-14.88v-19.999H25.723
	c-4.064,0-7.356-2.72-7.356-6.084V151.749c0-3.36,3.292-6.084,7.356-6.084h115.479V88.609H45.849
	c-22.656,0-41.033,15.044-41.033,33.608v498.518c0,18.56,18.373,33.604,41.033,33.604h95.353V635.096z"/>
</svg>
